<?xml version="1.0" encoding="UTF-8"?>

<svg version="1.1" xmlns="http://www.w3.org/2000/svg" width="1024" height="1024" viewBox="0 0 1024 1024" fill="currentColor">
<path d="M0 0 C4.7 -0.1 9.4 -0.1 14.2 -0.1 C15 -0.1 15.8 -0.1 16.7 -0.1 C22.5 -0.1 28.3 -0.1 34 0.1 C36.4 0.3 38.7 0.4 41.1 0.6 C43 0.8 45 1.1 47 1.3 C49.8 1.7 52.5 2.1 55.3 2.6 C56.2 2.8 57.1 3 58 3.1 C59.4 3.4 59.4 3.4 60.9 3.6 C63.8 4.2 66.7 4.7 69.5 5.3 C72.4 5.9 75.3 6.6 78.1 7.3 C81.1 8.2 84.2 9 87.2 9.9 C91.3 11.2 95.3 12.6 99.4 14 C102.1 15 104.8 16 107.5 17.1 C109.8 18 112.1 19 114.3 20 C117.3 21.3 120.2 22.7 123 24.1 C123.8 24.5 124.5 24.9 125.3 25.2 C128.5 26.8 131.6 28.4 134.7 30 C137.2 31.3 139.6 32.7 142 34.1 C145.7 36.4 149.3 38.7 152.9 41.1 C157 43.9 161 46.7 165.1 49.6 C166.8 50.9 168.5 52.1 170.2 53.4 C172.2 55 174.1 56.5 176 58.1 C178.6 60.4 181.2 62.7 183.8 65 C185.2 66.3 186.6 67.6 188.1 68.9 C188.7 69.4 189.4 70 190 70.6 C191.4 71.7 192.7 72.9 194 74.1 C196.5 76.5 199 79 201.4 81.4 C202.9 82.9 204.3 84.4 205.7 85.9 C210.5 91.4 215.2 97 219.8 102.6 C221.6 104.8 223.3 106.9 225 109.1 C225.8 110.1 226.5 111.2 227.3 112.2 C229.3 115.2 231.2 118.1 233 121.1 C233.9 122.5 234.8 123.8 235.7 125.1 C237.7 128.3 239.8 131.4 241.7 134.6 C242.9 136.4 244 138.3 245 140.1 C248.1 145.7 251.1 151.3 254 157 C256.2 161.3 258.4 165.7 260.4 170.1 C262 173.6 263.6 177.1 265.1 180.7 C266.1 183.2 267 185.7 268 188.1 C268.3 188.9 268.6 189.6 268.9 190.4 C270.1 193.3 271.3 196.2 272.4 199.2 C273.3 201.8 274.2 204.5 275 207.1 C277 213.6 279 220.1 280.8 226.6 C282.2 232 283.6 237.5 285 243 C286.1 247.8 287.1 252.7 288.1 257.7 C288.8 261.5 289.4 265.3 290 269.1 C291.2 277.1 292.2 285.1 293.1 293.2 C293.6 297.8 294 302.5 294.3 307.1 C294.7 311.8 294.9 316.5 295.1 321.2 C295.2 326.1 295.3 331 295.3 335.9 C295.3 337.1 295.3 337.1 295.3 338.3 C295.3 343.9 295.2 349.5 295 355.1 C294.8 359.6 294.6 364.1 294.2 368.6 C293.7 374.4 293.2 380.2 292.5 386 C291.9 391.2 291.2 396.4 290.4 401.6 C289.6 406.5 288.8 411.4 287.8 416.3 C286.5 422.5 285.2 428.6 283.7 434.7 C282.2 440.5 280.7 446.3 279 452.1 C278.2 454.8 277.4 457.5 276.5 460.1 C275.7 462.5 274.9 464.8 274 467.2 C273.3 468.8 272.7 470.5 272 472.1 C271.6 473.1 271.2 474.1 270.8 475.1 C268.6 480.7 266.3 486.2 263.9 491.7 C262.5 494.8 261.1 497.9 259.7 501 C257.9 504.6 256.1 508.1 254.2 511.6 C252.4 515 250.5 518.3 248.6 521.6 C246.7 524.8 244.7 528 242.7 531.2 C239.5 535.9 236.3 540.6 233.1 545.3 C230.9 548.3 228.8 551.3 226.6 554.2 C225.6 555.4 224.6 556.6 223.6 557.8 C222.3 559.3 221 560.8 219.7 562.3 C218.1 563.9 216.6 565.5 215 567.1 C214 568.4 212.9 569.6 211.8 570.9 C210.6 572.3 209.3 573.7 208 575.1 C204.4 579 200.6 582.8 196.8 586.5 C195.6 587.7 194.3 588.9 193 590.1 C191.2 591.8 189.3 593.4 187.4 594.9 C185.6 596.3 183.8 597.7 182 599.1 C181 599.9 180 600.7 179 601.5 C176.3 603.7 173.5 605.8 170.7 607.9 C168.5 609.5 166.2 611.2 163.8 612.8 C161.3 614.5 158.8 616.1 156.2 617.8 C152.1 620.3 148 622.8 143.8 625.2 C140.3 627.2 136.7 629.2 133 631.1 C130.7 632.3 128.3 633.5 126 634.7 C123.5 635.8 121.1 636.9 118.6 637.9 C115.7 639.1 112.6 640.3 109.6 641.4 C104.6 643.2 99.5 645 94.4 646.7 C90.6 647.9 86.8 649 83 650.1 C80.9 650.7 78.8 651.2 76.7 651.8 C73.7 652.4 70.8 653.1 67.8 653.6 C64.9 654.2 62 654.7 59 655.1 C58 655.3 57.1 655.4 56 655.6 C52.9 656.1 49.8 656.5 46.7 656.9 C43.4 657.3 40.1 657.6 36.7 657.9 C33.4 658.1 30.1 658.3 26.7 658.4 C21.5 658.5 16.2 658.5 11 658.5 C6.7 658.4 2.4 658.3 -2 658.1 C-4.4 658 -6.7 657.8 -9.1 657.6 C-12.4 657.3 -15.6 656.9 -18.8 656.5 C-22.9 656 -27 655.3 -31.1 654.6 C-35.2 653.8 -39.3 653 -43.3 652.2 C-47.1 651.3 -50.9 650.4 -54.6 649.5 C-57.1 648.8 -59.6 648.1 -62.1 647.4 C-64.6 646.6 -67 645.8 -69.5 645 C-73 643.8 -76.5 642.5 -79.9 641.2 C-82.7 640 -85.4 638.9 -88.2 637.7 C-91.2 636.4 -94.1 635 -97.1 633.6 C-101.4 631.5 -105.7 629.4 -109.9 627.1 C-112.9 625.5 -116 623.8 -119 622.1 C-121.5 620.6 -124 619 -126.5 617.4 C-130 615 -133.5 612.6 -137 610.1 C-137.5 609.7 -138.1 609.3 -138.7 608.9 C-141.2 607.1 -143.7 605.3 -146.1 603.4 C-149.7 600.5 -153.3 597.6 -156.8 594.6 C-160.7 591.3 -164.5 587.9 -168.2 584.4 C-169.3 583.4 -169.3 583.4 -170.3 582.4 C-171.3 581.5 -171.3 581.5 -172.3 580.6 C-173.6 579.4 -174.9 578.2 -176.1 577 C-176.7 576.4 -177.3 575.8 -178 575.1 C-180.4 572.5 -182.7 569.8 -185 567.1 C-185.9 566 -186.9 565 -187.9 563.9 C-190.4 561 -192.9 558.1 -195.4 555.1 C-196.4 553.8 -197.5 552.5 -198.5 551.1 C-200.6 548.3 -202.6 545.5 -204.5 542.7 C-207 539.1 -209.4 535.5 -211.7 531.9 C-213.6 528.9 -215.4 526 -217.2 523 C-219.7 518.7 -222.1 514.4 -224.4 510 C-226.5 506.1 -228.5 502.2 -230.5 498.2 C-232.5 494 -234.4 489.8 -236.3 485.5 C-238.2 481.2 -240 476.8 -241.7 472.4 C-242.9 469.2 -244.1 466.1 -245.2 463 C-246.2 459.9 -247.2 456.9 -248.2 453.8 C-249.5 449.4 -250.7 445 -251.9 440.5 C-253.5 434.2 -255 427.8 -256.4 421.5 C-257.6 415.9 -258.7 410.4 -259.7 404.9 C-260.4 400.8 -261 396.7 -261.5 392.6 C-262.4 385.2 -263.3 377.9 -263.9 370.6 C-264.3 365.4 -264.7 360.3 -265 355.1 C-265.2 350.8 -265.3 346.4 -265.3 342 C-265.4 336.9 -265.3 331.9 -265.2 326.8 C-265.1 322.3 -264.9 317.8 -264.6 313.3 C-264.1 306.6 -263.6 300 -262.9 293.3 C-262.2 287.1 -261.5 281 -260.6 274.8 C-260 270.6 -259.3 266.4 -258.6 262.3 C-257.5 256.7 -256.4 251.2 -255.2 245.7 C-254.2 241.2 -253.1 236.6 -252 232.1 C-250.8 227.6 -249.5 223.1 -248.2 218.6 C-246.2 211.9 -244 205.1 -241.7 198.4 C-240.1 193.9 -238.5 189.5 -236.8 185 C-235.4 181.5 -233.9 178 -232.4 174.5 C-230.1 169.5 -227.8 164.5 -225.4 159.6 C-223.1 155 -220.7 150.5 -218.3 146 C-216.1 142.2 -214 138.4 -211.7 134.7 C-209.7 131.3 -207.6 128 -205.4 124.8 C-203.4 121.8 -201.4 118.9 -199.3 116 C-197.9 114.1 -196.4 112.1 -195 110.1 C-194.5 109.5 -194 108.9 -193.6 108.3 C-191.3 105.3 -189.1 102.4 -186.8 99.5 C-185.8 98.4 -184.9 97.2 -184 96.1 C-180.9 92.7 -177.8 89.3 -174.6 86 C-173.3 84.6 -173.3 84.6 -172 83.1 C-170.9 81.7 -170.9 81.7 -169.7 80.3 C-169.2 79.6 -168.6 78.9 -168 78.1 C-167.3 78.1 -166.6 78.1 -166 78.1 C-166 77.5 -166 76.8 -166 76.1 C-165.3 76.1 -164.6 76.1 -164 76.1 C-163.7 75.5 -163.4 74.9 -163.2 74.3 C-162.8 73.6 -162.4 72.9 -162 72.1 C-161.5 71.6 -161 71.1 -160.5 70.6 C-159.9 70.1 -159.3 69.6 -158.7 69.1 C-157.9 68.5 -157.2 67.9 -156.5 67.2 C-155.7 66.5 -154.8 65.8 -154 65.1 C-153 64.3 -152.1 63.5 -151.1 62.6 C-147.8 59.7 -144.4 56.9 -141 54.1 C-138.7 52.3 -136.3 50.5 -134 48.8 C-131.3 46.8 -128.7 45 -126 43.1 C-122.7 40.9 -119.4 38.8 -116.1 36.7 C-113.4 35 -110.6 33.4 -107.9 31.8 C-105.9 30.7 -103.9 29.6 -101.9 28.5 C-97.8 26.4 -93.6 24.3 -89.3 22.3 C-85.3 20.5 -81.2 18.7 -77.1 16.9 C-74.4 15.8 -71.7 14.8 -69 13.8 C-66.3 12.8 -63.6 11.9 -60.8 11 C-57.8 10.1 -54.8 9.2 -51.7 8.4 C-47.5 7.3 -43.2 6.3 -39 5.4 C-35.2 4.6 -31.4 3.8 -27.5 3.1 C-24.4 2.6 -21.3 2.1 -18.2 1.7 C-16.8 1.5 -15.4 1.3 -14 1.1 C-12.9 1 -12.9 1 -11.9 0.8 C-10.2 0.6 -8.6 0.5 -7 0.3 C-4.7 0.2 -2.3 0.1 0 0 Z M-2.1 21.4 C-4.5 21.6 -7 21.8 -9.4 22.1 C-11.9 22.4 -14.4 22.7 -17 23.1 C-21.1 23.8 -25.3 24.6 -29.5 25.4 C-33.6 26.2 -37.8 27.1 -42 28.1 C-44.6 28.8 -47.2 29.4 -49.8 30.2 C-52.2 30.9 -54.6 31.6 -57.1 32.4 C-59.6 33.3 -62.1 34.2 -64.6 35.1 C-68.1 36.5 -71.7 38 -75.2 39.5 C-78.7 41.1 -82.1 42.7 -85.5 44.4 C-88.9 46 -92.2 47.7 -95.4 49.5 C-97.6 50.7 -99.8 51.9 -102 53.1 C-104.1 54.4 -106.1 55.7 -108.2 57 C-110.1 58.4 -112 59.7 -114 61.1 C-114.9 61.8 -114.9 61.8 -115.8 62.4 C-119.9 65.4 -124 68.5 -128 71.6 C-130.4 73.5 -132.8 75.4 -135.2 77.3 C-137.5 79.3 -139.8 81.3 -142 83.4 C-145.8 86.8 -149.5 90.4 -153.2 94 C-155.4 96.3 -157.7 98.6 -159.9 100.9 C-161.2 102.3 -162.5 103.7 -163.7 105.1 C-165.1 106.9 -166.6 108.6 -168 110.4 C-169.2 112.1 -170.5 113.8 -171.8 115.5 C-172.9 117.1 -174.1 118.6 -175.4 120.1 C-177 122.2 -178.7 124.2 -180.3 126.4 C-181.7 128.4 -183.1 130.4 -184.5 132.4 C-186.9 135.9 -189.2 139.5 -191.5 143.1 C-193.4 146.1 -195.2 149.1 -197 152.1 C-199.5 156.6 -201.9 161 -204.3 165.6 C-206 169 -207.8 172.4 -209.4 175.9 C-210.4 177.9 -211.4 180 -212.3 182.1 C-213.5 184.9 -214.7 187.8 -215.8 190.6 C-217.2 194.4 -218.6 198.3 -220 202.1 C-220.3 203.2 -220.7 204.2 -221.1 205.3 C-223.1 210.9 -225 216.5 -226.8 222.1 C-227.9 225.6 -229 229.1 -230 232.7 C-231.2 237.4 -232.4 242.2 -233.6 247.1 C-234.7 252 -235.7 257 -236.7 262 C-237.9 268.4 -239 274.8 -240 281.2 C-240.7 286.1 -241.4 291.1 -242 296 C-242.2 298.5 -242.4 300.9 -242.6 303.4 C-243.1 311.5 -243.5 319.6 -243.7 327.7 C-243.9 333.6 -244 339.5 -244 345.4 C-243.9 348.3 -243.8 351.1 -243.7 354 C-243.5 358.8 -243.1 363.5 -242.7 368.3 C-242.2 373.9 -241.6 379.5 -240.9 385.2 C-240.3 389.9 -239.6 394.6 -238.9 399.3 C-237.9 405.1 -236.8 411 -235.7 416.8 C-234.8 421 -233.8 425.1 -232.8 429.2 C-231.9 433 -230.9 436.7 -229.8 440.5 C-228.7 443.9 -227.6 447.4 -226.5 450.8 C-225 454.9 -223.5 459 -222 463.1 C-221.5 464.3 -221.5 464.3 -221.1 465.5 C-219.5 469.7 -217.9 473.8 -216.3 477.8 C-215.1 480.6 -213.9 483.4 -212.6 486.1 C-210.1 491.3 -207.6 496.4 -205 501.5 C-203.6 504.2 -202.1 506.9 -200.6 509.5 C-199.4 511.6 -198.1 513.7 -196.8 515.8 C-194.4 519.5 -192 523.2 -189.4 526.8 C-187.4 529.8 -185.3 532.7 -183.2 535.5 C-181.3 538 -179.4 540.5 -177.4 542.9 C-175.2 545.5 -172.9 548.2 -170.7 550.7 C-169.1 552.4 -167.6 554.1 -166.1 555.8 C-164.1 557.9 -162.3 560.1 -160.4 562.3 C-159.3 563.6 -158.1 564.9 -157 566.1 C-155.7 567.3 -154.4 568.4 -153.2 569.6 C-152.5 570.1 -151.8 570.7 -151.1 571.3 C-150.4 571.9 -149.7 572.5 -149 573.1 C-147.5 574.5 -146 575.9 -144.5 577.3 C-142.7 578.9 -140.8 580.5 -139 582.1 C-136.6 584.1 -134.1 586 -131.7 587.9 C-128.8 590 -125.9 592.1 -123 594.1 C-120.6 595.8 -118.2 597.4 -115.7 598.9 C-113.1 600.6 -110.4 602.2 -107.8 603.8 C-104.8 605.5 -101.8 607.2 -98.8 608.8 C-95.5 610.5 -92.2 612.2 -88.8 613.9 C-85.4 615.5 -81.9 617.1 -78.5 618.7 C-76.2 619.6 -73.8 620.6 -71.5 621.5 C-68.1 622.8 -64.7 624 -61.3 625.1 C-58 626.2 -54.6 627.2 -51.3 628.2 C-49.1 628.8 -46.9 629.4 -44.7 630 C-41.5 630.7 -38.3 631.4 -35.2 632.1 C-31.4 632.8 -27.7 633.5 -24 634.1 C-23.3 634.3 -22.5 634.4 -21.8 634.5 C-20 634.8 -18.2 635.1 -16.3 635.4 C-13.2 635.8 -10 636.1 -6.8 636.5 C-4.6 636.7 -2.3 636.8 -0 637 C4 637.1 8 637.2 12.1 637.3 C16.1 637.3 20.1 637.3 24.1 637.2 C26.9 637.1 29.7 637 32.5 636.9 C35.2 636.7 37.9 636.4 40.5 636.2 C43.4 635.9 46.2 635.5 49 635.1 C53.4 634.4 57.8 633.7 62.2 632.9 C66.5 632 70.8 631.1 75 630.1 C77.6 629.5 80.1 628.9 82.6 628.2 C85.1 627.5 87.5 626.8 89.8 626 C92.6 625 95.4 624 98.1 623 C102.6 621.2 107 619.4 111.4 617.5 C114.6 616.1 117.8 614.6 121 613.1 C123.8 611.8 126.5 610.4 129.2 608.9 C132.5 607.2 135.7 605.3 138.8 603.5 C141.6 601.8 144.3 600.1 147 598.4 C148.9 597.1 150.7 595.9 152.5 594.7 C154.9 592.9 157.3 591.2 159.7 589.4 C162.7 587.1 165.6 584.8 168.5 582.4 C169.9 581.2 171.4 579.9 172.8 578.7 C174.5 577.2 176.2 575.7 177.8 574.2 C179.9 572.3 182 570.4 184.2 568.6 C186.1 566.8 188.1 565.1 190 563.3 C191.3 562 192.7 560.7 194 559.3 C194.7 558.6 195.3 557.9 196 557.1 C198.3 554.4 200.6 551.7 202.8 548.9 C204.2 547.2 205.6 545.4 207.1 543.7 C208.6 542 210 540.3 211.5 538.5 C212.3 537.4 213.2 536.3 214 535.1 C216.4 531.9 218.6 528.6 220.8 525.3 C223.3 521.6 225.7 517.9 228 514.1 C229.6 511.5 231.2 508.8 232.7 506.1 C234.7 502.4 236.7 498.8 238.6 495 C240.6 491 242.5 486.8 244.4 482.7 C246.7 477.5 248.9 472.4 251 467.1 C252.3 463.8 253.6 460.5 254.8 457.2 C255.9 453.9 257 450.5 258 447.1 C259.6 441.9 261.1 436.6 262.5 431.3 C263.4 427.9 264.2 424.5 265 421.1 C266 416.5 266.9 411.9 267.8 407.2 C268.6 402.5 269.3 397.8 270 393.1 C270.8 387.3 271.5 381.4 272.1 375.5 C272.7 369.5 273.3 363.5 273.7 357.4 C274 351.9 274.1 346.4 274.2 340.8 C274.2 336.7 274.2 332.5 274.1 328.4 C274 323.9 273.8 319.4 273.5 314.9 C273.1 309 272.6 303.1 272 297.1 C271.4 291.1 270.6 285 269.8 279 C269 274.2 268.3 269.3 267.4 264.5 C266.2 258.6 265 252.8 263.7 246.9 C262.3 241.3 261 235.8 259.5 230.2 C258.1 225.2 256.6 220.1 255 215.1 C254.2 212.7 253.4 210.2 252.6 207.8 C251.4 204.7 250.2 201.6 249 198.6 C248.7 197.8 248.4 197 248 196.1 C247.7 195.3 247.3 194.4 247 193.5 C245 188.7 242.9 183.9 240.8 179.1 C238.5 174 236 168.9 233.5 163.8 C231.4 159.6 229.1 155.4 226.8 151.3 C225.6 149.2 224.4 147 223.1 144.9 C220.5 140.8 217.8 136.6 215 132.5 C213 129.7 211.1 126.9 209 124.1 C207.3 121.8 205.5 119.5 203.7 117.3 C201.2 114.2 198.6 111.1 196 108.1 C195.3 107.3 194.6 106.4 193.9 105.6 C192.5 104 191.1 102.5 189.7 101 C184.4 95.3 178.9 89.8 173.4 84.3 C171.4 82.4 169.4 80.5 167.4 78.6 C166.1 77.4 164.7 76.3 163.3 75.2 C161.6 73.8 159.8 72.5 158 71.1 C156.9 70.3 155.8 69.4 154.7 68.6 C152.3 66.7 149.8 64.8 147.2 63 C145.1 61.5 142.9 60.1 140.8 58.6 C137.5 56.6 134.3 54.6 131 52.6 C127.5 50.6 123.9 48.6 120.3 46.7 C117.6 45.2 114.8 43.8 112 42.4 C109 41.1 106.1 39.7 103.1 38.4 C101 37.5 98.9 36.7 96.8 35.9 C93.5 34.6 90.1 33.4 86.7 32.3 C83.3 31.1 79.9 30.1 76.5 29.1 C74.2 28.4 71.9 27.8 69.6 27.3 C66.3 26.5 62.9 25.8 59.5 25.2 C55.4 24.4 51.2 23.8 47 23.1 C46.2 23 45.3 22.9 44.5 22.7 C42.1 22.4 39.8 22.1 37.5 21.8 C35.2 21.6 32.9 21.4 30.6 21.3 C26.7 21.1 22.7 21 18.8 20.9 C14.6 20.9 10.3 20.9 6 21 C3.3 21.1 0.6 21.2 -2.1 21.4 Z " transform="translate(496.967529296875,110.873779296875)" fill="currentColor" />
<path d="M0 0 C2.7 -0.1 5.3 -0.2 8 -0.2 C8.7 -0.2 9.5 -0.2 10.2 -0.2 C18.1 -0.3 26.1 -0.3 34 -0.1 C35.7 -0 37.5 0.1 39.2 0.2 C40.9 0.4 42.6 0.6 44.2 0.8 C45.7 1 47.1 1.3 48.6 1.5 C50 1.8 51.4 2.1 52.8 2.5 C53.5 2.6 54.3 2.8 55 3 C55.8 3.2 56.6 3.4 57.5 3.6 C60.1 4.3 62.8 5 65.4 5.7 C68.1 6.5 70.7 7.3 73.4 8.1 C76 9 78.6 9.9 81.1 10.8 C83.7 11.8 86.2 12.7 88.7 13.8 C91.1 14.8 93.6 15.9 96 17 C98.3 18.1 100.6 19.3 102.9 20.5 C105.1 21.7 107.3 22.9 109.5 24.2 C111 25.1 112.5 26.1 114 27 C116.4 28.6 118.8 30.2 121.2 31.9 C124.2 34 127.1 36.2 130.1 38.5 C131.3 39.4 132.5 40.4 133.6 41.3 C135 42.5 136.3 43.7 137.6 44.9 C139.1 46.2 140.5 47.6 142 49 C143.4 50.2 144.8 51.4 146.2 52.6 C148.1 54.3 149.9 55.9 151.7 57.6 C152.9 58.7 154 59.9 155.2 61 C155.8 61.7 156.4 62.3 157 63 C160.1 66.6 163 70.3 166 74 C166.6 74.8 167.3 75.5 167.9 76.3 C169.2 77.9 170.5 79.4 171.8 81 C173.5 83.3 175.2 85.6 176.8 88 C179.4 91.8 182 95.7 184.5 99.6 C185.9 101.9 187.3 104.1 188.6 106.4 C190.3 109.3 192 112.3 193.6 115.2 C195.3 118.6 197 122 198.6 125.4 C200.8 130 202.9 134.7 204.9 139.4 C206.2 142.5 207.5 145.6 208.8 148.8 C209.6 151.1 210.5 153.3 211.3 155.6 C212.2 158.5 213.1 161.5 214 164.4 C215.8 170.8 217.6 177.2 219.2 183.6 C220.3 188 221.3 192.3 222.3 196.7 C222.8 199.3 223.3 201.9 223.8 204.6 C224.6 209.7 225.2 214.8 225.9 219.9 C226.4 224.4 226.9 228.9 227.3 233.4 C227.6 236.9 227.8 240.4 228 244 C228.2 249.7 228.3 255.3 228.4 261 C228.4 267.6 228.3 274.1 228.1 280.7 C227.9 284.3 227.7 287.9 227.5 291.6 C227.1 295.5 226.8 299.4 226.3 303.3 C225.9 306.9 225.5 310.4 225 314 C224.9 315 224.7 316 224.6 317.1 C224.2 319.9 223.8 322.8 223.3 325.6 C222.8 328.4 222.3 331.2 221.7 334 C220.7 338.6 219.5 343.1 218.4 347.7 C217 352.6 215.7 357.5 214.2 362.4 C213.4 364.8 212.6 367.1 211.8 369.5 C210.6 372.8 209.3 376 208 379.3 C206.4 383.2 204.7 387.1 203 391 C201.7 393.9 200.3 396.8 198.9 399.7 C197.6 402.1 196.3 404.6 195 407 C194.4 408.1 193.8 409.3 193.1 410.5 C191.9 412.8 190.6 415.1 189.3 417.4 C188.1 419.3 186.9 421.2 185.7 423.1 C183.7 426 181.7 428.9 179.6 431.7 C178.1 433.8 176.6 435.9 175 438 C173.6 439.8 172.2 441.5 170.8 443.2 C168.6 445.8 166.3 448.4 164 451 C163.5 451.5 163.1 452.1 162.6 452.6 C160.3 455.2 157.9 457.8 155.5 460.4 C154.3 461.7 154.3 461.7 153 463 C152.3 463.6 151.6 464.3 151 465 C149 466.7 147 468.3 145 470 C144.2 470.7 143.3 471.5 142.5 472.2 C140.5 473.9 138.5 475.6 136.5 477.3 C134.7 478.7 132.9 480.1 131.1 481.4 C129 482.9 126.8 484.4 124.7 485.9 C122.3 487.4 120 489 117.6 490.4 C114.9 492.1 112.2 493.6 109.4 495.2 C105.5 497.3 101.6 499.3 97.7 501.3 C95 502.6 92.2 503.9 89.5 505.1 C87.9 505.8 86.3 506.4 84.7 507.1 C82.4 507.9 80.1 508.8 77.8 509.5 C75.3 510.3 72.9 511 70.4 511.7 C66.9 512.7 63.3 513.5 59.8 514.4 C58.2 514.8 56.5 515.1 54.8 515.5 C51.6 516.1 48.3 516.6 45 517.1 C43 517.4 41 517.6 39.1 517.8 C37.7 517.9 36.3 518 34.9 518.1 C31.9 518.3 29 518.3 26 518.4 C23.7 518.4 21.4 518.4 19.1 518.4 C18.3 518.4 17.4 518.4 16.6 518.4 C11.8 518.4 7 518.3 2.1 518.1 C0.2 518 -1.8 517.9 -3.7 517.7 C-5.8 517.4 -8 517.2 -10.1 516.9 C-12 516.5 -13.9 516.2 -15.9 515.8 C-18.6 515.3 -21.3 514.6 -24 514 C-25.3 513.7 -25.3 513.7 -26.7 513.4 C-29.4 512.7 -32 512 -34.7 511.3 C-37.3 510.6 -39.8 509.8 -42.4 508.9 C-44.2 508.3 -45.9 507.7 -47.7 507 C-50.4 505.9 -53.1 504.8 -55.8 503.7 C-58.4 502.5 -61 501.4 -63.6 500.2 C-65.9 499.1 -68.1 497.9 -70.4 496.8 C-72.4 495.7 -74.4 494.6 -76.4 493.4 C-78.3 492.3 -80.1 491.2 -82 490 C-83.9 488.8 -85.7 487.5 -87.6 486.2 C-91.4 483.5 -95.1 480.7 -98.7 477.9 C-101.2 476 -103.6 474 -106 472 C-108.5 469.9 -110.9 467.7 -113.3 465.5 C-117 462.1 -120.7 458.5 -124.2 454.9 C-125.8 453.3 -127.4 451.7 -129 450 C-130.6 448.2 -132.1 446.4 -133.6 444.6 C-135.1 442.8 -136.6 440.9 -138 439 C-138.4 438.5 -138.8 437.9 -139.3 437.4 C-141.1 435 -142.9 432.7 -144.7 430.2 C-146.2 428.2 -147.6 426.1 -149 424 C-150.6 421.5 -152.1 419 -153.6 416.4 C-156.6 411.2 -159.4 406 -162.2 400.7 C-163.4 398.4 -164.5 396.2 -165.6 393.9 C-166.7 391.6 -167.8 389.2 -168.9 386.7 C-170.1 383.7 -171.4 380.6 -172.6 377.4 C-174.3 372.7 -176.1 367.9 -177.7 363.1 C-178.8 359.7 -179.9 356.3 -181 352.8 C-181.8 349.8 -182.6 346.9 -183.4 343.9 C-184.1 340.9 -184.8 338 -185.4 335 C-186.2 330.8 -187 326.5 -187.7 322.2 C-188.6 316.8 -189.3 311.4 -190 306 C-190.2 304.7 -190.2 304.7 -190.4 303.3 C-190.7 300.8 -191 298.3 -191.2 295.8 C-191.5 293 -191.7 290.2 -191.9 287.4 C-192.1 280.9 -192.3 274.3 -192.3 267.7 C-192.3 260.9 -192.3 254.2 -192.1 247.4 C-192 243.7 -191.8 240 -191.5 236.3 C-191.2 232.3 -190.8 228.3 -190.4 224.2 C-189.9 219.3 -189.2 214.4 -188.5 209.5 C-187.9 206.2 -187.4 202.9 -186.8 199.6 C-186.1 196.4 -185.5 193.3 -184.7 190.1 C-183.7 185.8 -182.6 181.6 -181.5 177.3 C-179.8 171.3 -178 165.3 -176.1 159.3 C-175.1 155.9 -173.9 152.6 -172.8 149.3 C-171.9 146.8 -171 144.4 -170 142 C-168.6 138.6 -167.1 135.2 -165.6 131.8 C-163.4 127 -161.2 122.3 -158.8 117.6 C-157.4 114.8 -156 112 -154.4 109.2 C-153.6 107.8 -152.8 106.4 -152 105 C-150.1 101.9 -148 98.8 -146 95.7 C-143.2 91.6 -140.4 87.6 -137.6 83.6 C-136.1 81.6 -134.6 79.6 -133.2 77.7 C-131.7 75.9 -130.2 74.1 -128.7 72.3 C-127.2 70.6 -125.6 69 -124.1 67.3 C-123.4 66.5 -122.7 65.8 -122 65 C-120.9 63.7 -119.9 62.5 -118.8 61.2 C-118.3 60.5 -117.7 59.9 -117.1 59.3 C-115.9 58 -114.8 56.8 -113.5 55.6 C-110.6 52.7 -107.7 50 -104.7 47.2 C-102.9 45.7 -101.1 44.1 -99.3 42.6 C-97.7 41.3 -96.1 40 -94.5 38.8 C-92.9 37.5 -91.3 36.3 -89.7 35.2 C-87.4 33.6 -85.1 32 -82.7 30.5 C-79.8 28.6 -76.9 26.8 -74 25 C-72.6 24.1 -72.6 24.1 -71.1 23.2 C-69.2 22 -67.3 20.9 -65.4 19.8 C-63.6 18.8 -61.8 17.9 -60 17 C-57.6 16 -55.3 14.9 -53 13.9 C-50.5 12.9 -48 11.9 -45.6 10.9 C-43.9 10.3 -42.1 9.7 -40.4 9.1 C-37 8 -33.6 7 -30.2 5.9 C-27.8 5.3 -25.4 4.6 -23 4 C-20.9 3.5 -18.8 3 -16.7 2.6 C-14.9 2.2 -13.1 1.9 -11.4 1.5 C-9 1.2 -6.6 0.8 -4.3 0.5 C-2.9 0.3 -1.4 0.1 0 0 Z M5 21 C3.2 21.2 1.4 21.3 -0.4 21.5 C-2 21.8 -3.6 22 -5.2 22.2 C-7.4 22.6 -9.7 23.1 -11.9 23.5 C-12.9 23.8 -12.9 23.8 -14 24 C-14.7 24.1 -15.3 24.3 -16 24.4 C-17.9 24.9 -19.8 25.3 -21.7 25.8 C-25.4 26.9 -29.1 28 -32.7 29.2 C-34.7 29.9 -36.7 30.6 -38.6 31.3 C-40 31.9 -41.4 32.4 -42.7 33 C-44.3 33.7 -45.9 34.4 -47.5 35.2 C-51.2 37 -54.8 38.8 -58.3 40.7 C-60.9 42.1 -63.5 43.5 -66 45 C-67.3 45.8 -68.6 46.7 -70 47.5 C-71.1 48.3 -72.3 49.1 -73.4 49.9 C-75.1 51.2 -76.7 52.4 -78.4 53.7 C-81.3 56 -84.2 58.3 -87 60.8 C-89.4 62.8 -91.7 64.9 -94 67 C-96.4 69.3 -98.8 71.5 -101.2 73.9 C-102.9 75.6 -104.7 77.4 -106.4 79.2 C-107.4 80.4 -108.5 81.6 -109.5 82.8 C-111 84.5 -112.4 86.2 -113.8 88 C-115.1 89.8 -116.4 91.5 -117.7 93.3 C-118.9 94.9 -120.2 96.5 -121.4 98.1 C-122.6 99.7 -123.8 101.4 -125 103 C-125.9 104.2 -126.7 105.5 -127.6 106.8 C-129.2 109.4 -130.8 112 -132.4 114.6 C-134.9 118.8 -137.3 123.1 -139.6 127.4 C-140.7 129.6 -141.9 131.8 -143 134 C-144.5 137.1 -145.9 140.2 -147.2 143.4 C-149.2 148.2 -151.2 153.1 -153 158 C-153.3 158.8 -153.6 159.6 -153.9 160.4 C-154.7 162.6 -155.5 164.7 -156.2 166.9 C-157 169.1 -157.7 171.3 -158.3 173.5 C-159.7 178.4 -160.9 183.2 -162.1 188.1 C-163.1 192.4 -164.1 196.7 -165 201 C-165.8 205.1 -166.6 209.2 -167.2 213.4 C-167.9 217.6 -168.5 221.8 -169 226 C-169.5 230.6 -169.9 235.2 -170.2 239.8 C-170.6 245.1 -170.9 250.4 -171.1 255.8 C-171.2 258.3 -171.2 260.9 -171.2 263.4 C-171.2 268 -171.1 272.6 -170.9 277.2 C-170.7 281.8 -170.4 286.4 -170.1 291.1 C-169.7 294.7 -169.4 298.4 -169 302 C-168.5 305.7 -168 309.4 -167.4 313.1 C-166.6 318 -165.7 322.8 -164.7 327.6 C-163.8 331.8 -162.9 336 -161.9 340.2 C-160.9 343.9 -159.9 347.7 -158.8 351.4 C-158.5 352.2 -158.3 353.1 -158 354 C-157.8 354.8 -157.5 355.6 -157.3 356.5 C-156.5 358.9 -155.7 361.3 -154.9 363.8 C-154.1 366.3 -153.1 368.7 -152.2 371.2 C-150.8 374.4 -149.5 377.5 -148.1 380.6 C-145.9 385.3 -143.7 389.9 -141.4 394.5 C-140.3 396.7 -139.2 398.9 -138 401 C-136.9 402.8 -135.8 404.6 -134.7 406.4 C-133.2 408.7 -131.7 411 -130.1 413.3 C-126.9 417.9 -123.4 422.5 -120 427 C-119.7 426.3 -119.3 425.7 -119 425 C-119.2 423.8 -119.4 422.6 -119.6 421.3 C-119.8 419.7 -120.1 418.2 -120.4 416.6 C-121 413.4 -121.5 410.2 -122 407 C-122.1 405.9 -122.2 404.7 -122.3 403.6 C-122.3 402.6 -122.4 401.6 -122.4 400.6 C-122.3 399.2 -122.3 399.2 -122.3 397.8 C-122.1 396.4 -122.1 396.4 -122 395 C-121.8 394 -121.7 393 -121.5 392 C-121.3 390.9 -121.1 389.9 -120.9 388.9 C-120.6 387.9 -120.3 386.9 -120 385.9 C-119.7 384.9 -119.4 384 -119 383 C-118.4 381.7 -118.4 381.7 -117.7 380.3 C-117.3 379.5 -116.8 378.6 -116.3 377.8 C-115.5 376.5 -115.5 376.5 -114.7 375.3 C-114.2 374.5 -113.6 373.8 -113 373 C-112.4 372.3 -111.8 371.6 -111.2 370.8 C-110.6 370.1 -110 369.5 -109.3 368.8 C-108.6 368.1 -108 367.5 -107.3 366.8 C-106.1 365.9 -106.1 365.9 -105 365 C-104.1 364.4 -103.2 363.8 -102.3 363.2 C-100.5 362.2 -98.7 361.2 -96.9 360.2 C-95.9 359.8 -95 359.4 -94 359 C-92.7 358.6 -91.5 358.2 -90.2 357.9 C-89.5 357.7 -88.8 357.5 -88.1 357.4 C-87.4 357.3 -86.7 357.1 -86 357 C-85.3 356.9 -84.6 356.9 -83.9 356.8 C-83.3 356.7 -82.6 356.7 -81.9 356.7 C-79.7 356.6 -77.6 356.6 -75.4 356.6 C-74 356.7 -72.5 356.7 -71 356.8 C-70.4 356.9 -69.7 356.9 -69 357 C-67.9 357.2 -66.9 357.5 -65.8 357.7 C-64.9 358 -64 358.3 -63.1 358.6 C-62.2 359 -61.4 359.4 -60.5 359.7 C-58.7 360.6 -57 361.5 -55.3 362.5 C-53.6 363.4 -51.9 364.4 -50.3 365.4 C-49.5 366 -48.8 366.5 -48 367 C-46.3 368.3 -44.7 369.6 -43 371 C-42.2 367.4 -41.3 363.8 -40.5 360.2 C-40.3 359.2 -40 358.2 -39.8 357.2 C-39.6 356.2 -39.3 355.2 -39.1 354.2 C-38.9 353.3 -38.7 352.4 -38.5 351.5 C-38.2 350.2 -38.2 350.2 -38 349 C-38 347.7 -38 346.4 -38 345 C-39.1 344.5 -40.3 344 -41.4 343.5 C-46.3 341.4 -51.2 339.3 -56 337 C-57.3 336.4 -58.5 335.8 -59.8 335.1 C-60.9 334.5 -62 333.9 -63.1 333.3 C-64.8 332.3 -64.8 332.3 -66.5 331.3 C-67.7 330.6 -68.8 329.8 -70 329 C-71.4 328 -72.7 327 -74.1 326 C-76.2 324.4 -78.3 322.7 -80.3 321 C-82.2 319.3 -84.1 317.7 -86 316 C-87 315.1 -87.9 314.2 -88.9 313.2 C-89.7 312.4 -90.5 311.5 -91.4 310.6 C-92.5 309.3 -92.5 309.3 -93.7 307.9 C-95.3 305.8 -97 303.7 -98.5 301.6 C-99.4 300.4 -100.3 299.2 -101.1 297.9 C-102 296.7 -102.8 295.4 -103.6 294.1 C-104.4 292.7 -105.2 291.4 -106 290 C-106.8 288.6 -107.5 287.1 -108.2 285.6 C-108.9 284.1 -109.6 282.6 -110.3 281.1 C-111.3 278.8 -112.2 276.6 -113.2 274.2 C-114 272.1 -114.7 270 -115.5 267.8 C-116 266.4 -116.4 265.1 -116.8 263.7 C-117.2 262.3 -117.6 260.9 -118 259.5 C-118.3 258 -118.7 256.5 -119 255 C-119.5 252.4 -120 249.9 -120.4 247.3 C-120.8 244.6 -121.2 241.9 -121.5 239.3 C-121.8 236.7 -122 234.1 -122.2 231.6 C-122.2 230 -122.3 228.4 -122.4 226.8 C-122.4 225.3 -122.4 223.7 -122.4 222.2 C-122.3 220.6 -122.2 219 -122.2 217.4 C-122 214.9 -121.8 212.4 -121.5 209.8 C-121.2 207.2 -120.9 204.6 -120.5 201.9 C-120.2 200.1 -119.9 198.4 -119.5 196.6 C-119.2 194.9 -118.8 193.2 -118.4 191.4 C-118 189.8 -117.6 188.1 -117.1 186.4 C-116.4 183.9 -115.6 181.5 -114.8 179 C-113.9 176.4 -113 173.9 -112 171.4 C-111 168.8 -109.9 166.3 -108.8 163.7 C-108 162 -107.2 160.4 -106.4 158.7 C-105.6 157.1 -104.8 155.6 -104 154 C-103.2 152.6 -102.4 151.2 -101.5 149.8 C-100.7 148.5 -99.9 147.2 -99 145.9 C-97.8 144.1 -96.5 142.4 -95.2 140.6 C-93.4 138.2 -91.6 135.8 -89.7 133.4 C-88.2 131.6 -86.6 129.8 -85 128 C-83 125.8 -80.9 123.6 -78.8 121.4 C-77.1 119.8 -75.5 118.1 -73.7 116.5 C-72.9 115.8 -72.9 115.8 -72 115 C-70.9 114.1 -69.7 113.1 -68.5 112.2 C-66.8 110.9 -65.1 109.7 -63.3 108.5 C-60.4 106.5 -57.5 104.7 -54.5 102.8 C-52.8 101.8 -51.1 100.8 -49.3 99.8 C-47.6 98.8 -45.8 97.9 -44 97 C-42.2 96.2 -42.2 96.2 -40.4 95.3 C-38.6 94.6 -36.7 93.8 -34.9 93.1 C-32.9 92.4 -31 91.7 -29 91 C-26 90 -22.9 89.1 -19.8 88.2 C-18.8 88 -18.8 88 -17.7 87.6 C-16.3 87.3 -14.8 86.9 -13.4 86.5 C-10.7 85.9 -8.1 85.4 -5.5 84.9 C-4.5 84.7 -3.4 84.6 -2.4 84.4 C-1.3 84.3 -0.2 84.1 1 84 C2.9 83.9 4.9 83.8 6.8 83.7 C10.4 83.6 13.9 83.6 17.5 83.6 C18.2 83.6 19 83.6 19.8 83.6 C23.5 83.6 27.3 83.7 31 83.8 C32.3 83.9 33.7 83.9 35 84 C36.6 84.1 36.6 84.1 38.2 84.3 C39.1 84.4 40 84.5 40.9 84.7 C41.8 84.8 42.6 84.9 43.5 85.1 C45 85.4 46.6 85.7 48.1 86.1 C49.6 86.5 51.2 86.9 52.7 87.3 C53.8 87.7 53.8 87.7 55 88 C55.9 88.2 56.7 88.5 57.6 88.7 C60.4 89.5 63.1 90.4 65.8 91.2 C68.4 92.1 71 93.1 73.6 94 C75.1 94.7 76.6 95.3 78.2 95.9 C79.5 96.6 80.8 97.2 82.1 97.8 C83.3 98.5 84.5 99.1 85.7 99.8 C86.9 100.5 88.1 101.2 89.2 101.9 C91.1 103 92.9 104.2 94.7 105.4 C96.5 106.7 98.3 107.9 100.1 109.2 C101.7 110.4 103.4 111.7 105 113 C106.9 114.6 108.7 116.2 110.6 117.8 C112.1 119.2 113.5 120.6 115 122 C115.8 122.8 116.7 123.6 117.6 124.4 C118.8 125.7 118.8 125.7 120 127 C121 128 121 128 122 129 C123.5 130.7 125.1 132.4 126.6 134.1 C127.4 135 128.2 136 129 137 C130.2 138.6 131.3 140.2 132.4 141.9 C133.6 143.7 134.7 145.4 135.8 147.2 C136.9 149.1 138 151 139.1 152.9 C140.1 154.9 141.2 156.9 142.2 158.9 C143.2 160.9 144.1 162.9 145.1 165 C146 167 146.8 168.9 147.7 170.9 C148.5 172.9 149.2 174.9 150 176.9 C150.5 178.2 150.9 179.5 151.4 180.9 C151.8 182.3 152.2 183.8 152.6 185.2 C153.2 187.5 153.7 189.8 154.2 192.1 C155.1 196.3 155.9 200.5 156.7 204.8 C157.1 207 157.4 209.3 157.7 211.6 C157.9 213.9 158.1 216.2 158.3 218.5 C158.3 219.7 158.3 220.9 158.4 222.1 C158.3 223.8 158.3 223.8 158.3 225.6 C158.2 226.7 158.1 227.8 158 229 C157.7 230.7 157.7 230.7 157.3 232.4 C156.9 234.1 156.9 234.1 156.4 235.8 C155.9 237.3 155.9 237.3 155.3 239 C154.9 240 154.5 241 154 242 C153.5 242.9 153 243.8 152.5 244.8 C151.9 245.6 151.3 246.5 150.8 247.4 C150.1 248.2 149.5 249 148.9 249.8 C148.3 250.5 147.6 251.2 147 252 C146.4 252.7 145.8 253.3 145.2 254 C144.5 254.6 143.9 255.2 143.2 255.8 C142.3 256.6 142.3 256.6 141.2 257.5 C140.5 258 139.8 258.5 139 259 C138.1 259.5 137.3 260 136.4 260.5 C135.4 260.9 134.5 261.4 133.6 261.8 C132.2 262.4 132.2 262.4 130.7 263 C129.8 263.3 128.9 263.7 128 264 C126.9 264.4 126.9 264.4 125.7 264.8 C125 264.9 124.2 265.1 123.5 265.3 C122.8 265.4 122 265.6 121.3 265.7 C119.7 265.9 118.1 266.1 116.5 266.3 C115.6 266.3 114.7 266.3 113.8 266.4 C112.8 266.4 111.9 266.3 111 266.3 C110 266.2 109 266.1 108 266 C106.4 265.7 106.4 265.7 104.8 265.3 C103.7 265 102.6 264.7 101.5 264.4 C100.4 264 99.3 263.7 98.2 263.3 C97.2 262.9 96.1 262.4 95 262 C93.9 261.5 92.8 260.9 91.7 260.4 C89.8 259.3 87.9 258.3 85.9 257.2 C85 256.6 85 256.6 84 256 C83.4 257.1 82.7 258.2 82.1 259.4 C81.3 260.9 80.5 262.3 79.6 263.8 C79.2 264.6 78.8 265.3 78.4 266 C78 266.8 77.6 267.5 77.2 268.2 C76.8 268.9 76.4 269.5 76.1 270.2 C75.7 270.8 75.4 271.4 75 272 C74.3 273 73.7 274 73 275 C73.9 275.4 74.8 275.8 75.7 276.2 C79.8 278.1 83.9 280 88 282 C90.8 283.4 93.5 284.9 96.2 286.4 C98.2 287.5 100.2 288.7 102.1 289.8 C103.3 290.6 104.5 291.4 105.7 292.1 C107.3 293.3 108.9 294.4 110.4 295.6 C112.3 297 114.2 298.5 116 300 C116.8 300.6 117.6 301.2 118.4 301.9 C119.1 302.5 119.8 303.1 120.6 303.7 C121.3 304.3 122 305 122.7 305.7 C123.5 306.4 124.2 307.2 125 308 C125.9 309 126.8 310.1 127.7 311.2 C129.2 312.9 130.6 314.7 132 316.5 C133.3 318.3 134.7 320.2 136 322 C137.5 324.1 138.9 326.3 140.3 328.4 C141.3 330 141.3 330 142.2 331.7 C142.8 332.8 143.4 333.9 144 335 C144.8 336.8 145.7 338.6 146.4 340.4 C147.2 342.3 147.9 344.2 148.6 346.1 C149.1 347.4 149.5 348.7 150 350 C150.2 350.6 150.5 351.3 150.7 352 C151.4 354 152.1 356 152.7 358.1 C153.1 359.5 153.5 360.9 153.9 362.3 C154.3 363.9 154.7 365.4 155 367 C155.5 369.8 156 372.5 156.4 375.3 C156.8 378.2 157.2 381 157.5 383.9 C157.8 386.8 158.1 389.7 158.3 392.7 C158.3 394.3 158.3 394.3 158.4 395.9 C158.3 397.5 158.3 397.5 158.3 399.1 C158.1 401.4 157.9 403.6 157.7 405.9 C156.9 413 156 420 155 427 C156.2 425.9 157.4 424.7 158.6 423.6 C159 423 159.5 422.5 160 422 C160.4 421.5 160.9 420.9 161.3 420.3 C162.6 418.5 164 416.6 165.2 414.7 C165.7 414 166.2 413.3 166.7 412.6 C168.6 409.7 170.4 406.9 172.2 404 C173.4 402.1 174.5 400.2 175.6 398.3 C176.7 396.3 177.8 394.3 178.9 392.2 C180.1 389.8 181.2 387.5 182.3 385.1 C183.9 381.5 185.4 378 186.9 374.4 C188.3 370.9 189.6 367.4 190.9 363.9 C191.8 361.4 192.7 358.9 193.5 356.3 C194.4 353.5 195.2 350.8 196 348 C197.2 343.5 198.2 338.9 199.2 334.4 C200.6 328.2 201.8 322.1 203 315.9 C203.4 313.7 203.7 311.4 204.1 309.1 C204.6 305.8 204.9 302.5 205.3 299.2 C205.8 293.9 206.3 288.7 206.7 283.5 C206.9 279.2 207.1 275 207.2 270.8 C207.3 266.6 207.2 262.5 207.2 258.3 C207.1 253 206.8 247.8 206.5 242.5 C206.2 238.2 205.9 233.8 205.4 229.5 C205 225.8 204.5 222.2 204 218.5 C203 212.2 201.9 205.9 200.7 199.6 C199.8 195.2 198.9 190.8 197.9 186.5 C197.2 183.5 196.4 180.6 195.7 177.7 C194.8 174.8 194 172 193.1 169.2 C192.2 166.3 191.2 163.5 190.2 160.8 C188.5 156.3 186.7 151.8 184.9 147.4 C183.5 144 182 140.6 180.5 137.3 C179.4 134.8 178.2 132.4 177 130 C175.4 126.8 173.7 123.6 171.9 120.5 C170.3 117.6 168.7 114.8 167 112 C165.7 109.9 164.4 107.8 163 105.7 C160.9 102.7 158.8 99.7 156.7 96.8 C155 94.6 153.4 92.4 151.7 90.2 C150.8 89.2 149.9 88.1 149 87 C147.1 84.8 145.2 82.7 143.2 80.6 C142.3 79.6 141.4 78.6 140.5 77.6 C139.6 76.8 138.8 75.9 138 75 C137 73.8 136 72.5 135 71.3 C134.3 70.5 134.3 70.5 133.6 69.7 C133.1 69.1 132.6 68.6 132 68 C130.3 66.5 128.5 65 126.8 63.6 C124.8 62 122.9 60.5 121 59 C119.8 58 119.8 58 118.6 57 C117 55.6 115.3 54.3 113.7 53 C111.8 51.6 109.8 50.2 107.8 48.8 C106.1 47.6 104.3 46.5 102.6 45.4 C100.7 44.2 98.9 43.1 97 42 C95.1 40.9 93.1 39.9 91.1 38.8 C89.1 37.8 87.1 36.8 85.1 35.8 C83.1 34.9 81.1 34 79 33.2 C77.1 32.3 75.2 31.6 73.2 30.8 C71.2 30.1 69.2 29.4 67.1 28.7 C64.9 28 62.6 27.3 60.3 26.6 C57.9 25.9 55.4 25.2 53 24.6 C49.5 23.8 45.9 23 42.4 22.2 C41.2 22.1 40.1 21.9 38.9 21.7 C37.1 21.5 37.1 21.5 35.3 21.3 C32.9 21.1 30.5 21 28.1 20.9 C23.7 20.7 19.3 20.7 14.8 20.7 C11.6 20.7 8.3 20.8 5 21 Z M2.2 104.3 C0.5 104.5 -1.3 104.8 -3 105.1 C-4.6 105.4 -6.2 105.7 -7.9 106.1 C-9.5 106.5 -11 106.9 -12.6 107.3 C-15.1 108 -17.5 108.8 -20 109.5 C-21.6 110.1 -23.2 110.7 -24.9 111.2 C-26.4 111.8 -28 112.5 -29.6 113.1 C-31.1 113.7 -32.5 114.3 -34 115 C-35.3 115.6 -36.6 116.3 -37.9 116.9 C-39.2 117.6 -40.4 118.3 -41.6 118.9 C-42.7 119.6 -43.8 120.3 -44.9 121 C-45.9 121.6 -47 122.3 -48 123 C-48.9 123.6 -49.8 124.3 -50.7 125 C-51.6 125.6 -52.4 126.3 -53.2 126.9 C-54.8 128.3 -56.4 129.6 -58 131 C-58.8 131.7 -59.7 132.4 -60.6 133.2 C-62.3 134.7 -64 136.2 -65.6 137.7 C-67.1 139.2 -68.6 140.6 -70.1 142 C-70.7 142.7 -71.3 143.4 -72 144.1 C-72.6 144.9 -73.3 145.6 -73.9 146.4 C-75.5 148.3 -77 150.3 -78.4 152.3 C-79.7 154.1 -81 156 -82.3 157.9 C-83.1 159.2 -84 160.5 -84.8 161.9 C-85.2 162.6 -85.6 163.3 -86 164 C-86.8 165.4 -87.5 166.9 -88.2 168.4 C-89.3 170.6 -90.3 172.9 -91.3 175.2 C-92.2 177.4 -93.1 179.7 -94 182 C-94.5 183.5 -95 185 -95.5 186.5 C-96.4 189.2 -97.2 191.9 -98 194.6 C-98.4 196.1 -98.7 197.5 -99 199 C-99.4 201.1 -99.8 203.1 -100.1 205.2 C-100.4 207.4 -100.7 209.7 -101 212 C-101.1 214.2 -101.2 216.4 -101.3 218.6 C-101.3 220.8 -101.3 223.1 -101.3 225.3 C-101.3 226.5 -101.3 227.7 -101.3 228.9 C-101.2 232.3 -101.2 235.6 -101 239 C-100.9 239.8 -100.9 240.7 -100.8 241.5 C-100.7 242.6 -100.7 242.6 -100.5 243.7 C-100.3 245 -100.1 246.3 -99.9 247.6 C-99.6 248.8 -99.3 250.1 -99 251.3 C-98.1 254.7 -97.1 258.1 -96 261.4 C-95.6 262.9 -95.1 264.3 -94.5 265.8 C-94 267.2 -93.5 268.6 -92.9 270 C-92.6 270.6 -92.3 271.3 -92 272 C-91.4 273.3 -90.7 274.6 -90.1 275.9 C-89.4 277.1 -88.7 278.3 -88.1 279.5 C-87.4 280.6 -86.7 281.8 -86 282.9 C-84.8 284.8 -83.6 286.6 -82.4 288.4 C-81.8 289.2 -81.3 289.9 -80.8 290.6 C-80.2 291.3 -79.6 292 -79 292.7 C-77.5 294.5 -75.9 296.2 -74.2 298 C-72.7 299.6 -71.2 301.1 -69.6 302.7 C-68.1 304.2 -66.6 305.6 -65 307 C-63.8 308 -63.8 308 -62.6 309 C-61.8 309.6 -61.1 310.1 -60.3 310.7 C-59.1 311.5 -59.1 311.5 -57.9 312.3 C-55.5 313.7 -53.2 315 -50.8 316.4 C-49.2 317.2 -47.7 318.1 -46.2 318.9 C-45.1 319.5 -45.1 319.5 -44 320.1 C-43.3 320.4 -42.6 320.8 -41.9 321.2 C-41.2 321.5 -40.6 321.8 -40 322.2 C-39.3 322.4 -38.7 322.7 -38 323 C-37.1 323.2 -36.2 323.4 -35.3 323.6 C-34.5 323.7 -33.8 323.9 -33 324 C-32 319.3 -31 314.5 -30 309.8 C-29.7 308.2 -29.3 306.6 -29 305 C-28.5 302.7 -28 300.3 -27.5 298 C-27.4 297.3 -27.2 296.6 -27.1 295.9 C-26.9 295.2 -26.8 294.5 -26.6 293.8 C-26.4 292.5 -26.2 291.3 -26 290 C-25.9 288.9 -25.9 287.8 -25.8 286.6 C-25.9 285.8 -25.9 284.9 -26 284 C-26.6 283.3 -27.3 282.5 -27.9 281.8 C-28.8 281.1 -29.7 280.4 -30.6 279.8 C-32.4 278.2 -34.2 276.6 -36 275 C-36.7 274.2 -37.3 273.5 -38 272.7 C-38.6 271.9 -39.2 271.1 -39.8 270.2 C-40.3 269.4 -40.8 268.6 -41.4 267.7 C-42.2 266.4 -42.2 266.4 -43 265 C-43.5 264 -44.1 262.9 -44.7 261.9 C-45.7 259.8 -46.7 257.7 -47.6 255.6 C-48.3 253.8 -48.3 253.8 -49 252 C-49.6 250.3 -50.1 248.5 -50.6 246.8 C-51 245.4 -51 245.4 -51.4 243.9 C-51.6 243 -51.8 242 -52 241 C-52.1 240.1 -52.2 239.2 -52.3 238.2 C-52.3 237.3 -52.4 236.4 -52.4 235.4 C-52.5 233.5 -52.5 231.6 -52.4 229.8 C-52.4 228.7 -52.4 227.7 -52.4 226.7 C-52.4 224.7 -52.3 222.7 -52.2 220.7 C-52.1 219.8 -52.1 218.9 -52 218 C-51.9 217.2 -51.8 216.5 -51.7 215.7 C-51.6 215 -51.5 214.4 -51.3 213.7 C-51 212.4 -50.7 211.2 -50.4 209.9 C-50.1 208.8 -49.7 207.6 -49.3 206.4 C-48.4 204 -47.4 201.7 -46.5 199.3 C-45.9 198.1 -45.3 196.9 -44.8 195.7 C-43.8 194 -43.8 194 -42.9 192.2 C-42.3 191.2 -41.7 190.1 -41 189 C-40.4 188.1 -39.7 187.1 -39.1 186.2 C-38.4 185.3 -37.8 184.5 -37.1 183.6 C-36.4 182.8 -35.8 182 -35.1 181.2 C-33.7 179.8 -32.4 178.3 -31 176.9 C-30.3 176.2 -29.6 175.6 -28.9 174.9 C-28.1 174.2 -27.4 173.6 -26.6 172.9 C-25.7 172.3 -24.9 171.7 -24 171 C-22.4 169.9 -20.7 168.8 -19 167.8 C-17.8 167.1 -16.7 166.4 -15.5 165.7 C-14.2 165.1 -13 164.5 -11.8 163.8 C-11.2 163.6 -10.6 163.3 -10 163 C-8.8 162.6 -7.6 162.1 -6.4 161.6 C-4.3 161 -2.1 160.3 0.1 159.7 C2 159.2 3.9 158.8 5.8 158.4 C6.9 158.3 7.9 158.1 9 158 C10.4 157.9 11.8 157.8 13.2 157.8 C15.6 157.7 18 157.7 20.4 157.7 C22.1 157.7 23.8 157.8 25.5 157.8 C26.4 157.9 27.2 157.9 28 158 C28.7 158.1 29.5 158.2 30.2 158.3 C30.9 158.4 31.6 158.5 32.3 158.6 C32.9 158.7 33.6 158.9 34.3 159 C35.6 159.3 36.9 159.7 38.2 160 C39.5 160.4 40.8 160.8 42.1 161.3 C43.4 161.8 44.7 162.3 46 162.8 C47.3 163.4 48.6 164 49.9 164.7 C51.2 165.3 52.5 166 53.8 166.7 C55 167.4 56.2 168.2 57.3 168.9 C57.9 169.3 58.4 169.6 59 170 C60 170.7 60.9 171.5 61.9 172.2 C63.2 173.4 63.2 173.4 64.5 174.5 C66 176 67.5 177.5 69 179 C69.6 179.6 70.2 180.2 70.9 180.8 C71.5 181.4 72 182 72.6 182.6 C73.2 183.3 73.7 183.9 74.3 184.6 C75.1 185.8 75.1 185.8 76 187 C77.1 188.7 78.1 190.4 79.1 192.1 C79.8 193.4 80.5 194.7 81.2 196 C81.9 197.3 82.5 198.7 83.2 200 C83.4 200.7 83.7 201.3 84 202 C84.2 202.6 84.5 203.3 84.7 203.9 C85 204.9 85 204.9 85.3 205.8 C86 208.3 86.6 210.8 87.2 213.3 C87.7 215.8 88.3 218.3 88.8 220.8 C89.2 223.2 89.7 225.6 90.2 228 C90.6 229.5 90.6 229.5 91 231 C91.6 232.2 92.2 233.3 92.8 234.5 C94 235.9 95.2 237.2 96.5 238.6 C97.3 239.4 97.3 239.4 98.2 240.2 C99.1 240.9 99.1 240.9 100 241.7 C100.7 242.1 101.3 242.5 102 243 C103 243.5 103 243.5 104.1 244.1 C104.8 244.4 105.6 244.6 106.3 244.9 C107.1 245.2 107.8 245.4 108.6 245.6 C109.4 245.7 110.2 245.9 111 246 C111.8 246 112.6 246.1 113.5 246.1 C114.7 246.1 114.7 246.1 116 246 C117.2 245.8 117.2 245.8 118.5 245.6 C119.3 245.4 120.2 245.2 121 245 C121.8 244.7 122.6 244.4 123.4 244.1 C124.6 243.5 124.6 243.5 125.8 242.9 C126.5 242.5 127.2 242.1 128 241.6 C128.6 241.1 129.3 240.5 130 240 C130.9 239 130.9 239 131.9 238 C132.4 237.3 132.9 236.6 133.5 235.9 C134 235.2 134.4 234.5 134.9 233.9 C135.3 233.3 135.6 232.6 136 232 C136.3 231 136.7 230 137 229 C137.1 227.8 137.2 226.7 137.2 225.5 C137.3 223.2 137.3 220.9 137.3 218.7 C137.3 217 137.2 215.3 137.2 213.6 C137.1 212.7 137.1 211.9 137 211 C136.8 209.3 136.5 207.6 136.3 205.9 C135.8 203.3 135.3 200.8 134.8 198.3 C134 195.1 133.3 192 132.5 188.9 C132 187 131.4 185.2 130.8 183.3 C130.4 182.1 130 180.9 129.5 179.7 C129 178.5 128.5 177.2 128 176 C127 173.8 125.9 171.6 124.8 169.5 C123.7 167.3 122.5 165.1 121.3 162.9 C120.6 161.6 119.8 160.3 119 159 C118.3 158 117.7 156.9 117 155.8 C116.3 154.9 115.7 154 115 153.1 C113.7 151.4 112.4 149.7 111 148 C109.5 146.2 108 144.5 106.4 142.8 C105 141.2 103.5 139.6 102 138 C101.5 137.4 100.9 136.8 100.4 136.2 C99.9 135.6 99.3 135.1 98.8 134.5 C98.3 134 97.7 133.4 97.1 132.8 C96.4 132.2 95.7 131.6 95 131 C93.5 129.8 91.9 128.5 90.3 127.4 C88.5 126 86.7 124.8 84.9 123.5 C83.6 122.6 82.3 121.8 81 121 C79.7 120.2 78.4 119.5 77 118.8 C75 117.7 73 116.7 71 115.7 C67.9 114.2 64.7 112.9 61.6 111.5 C60.5 111.1 59.4 110.7 58.2 110.2 C57.1 109.9 56 109.5 54.8 109.1 C52.1 108.3 49.3 107.5 46.6 106.8 C45 106.4 43.4 106 41.8 105.7 C40 105.3 38.3 105 36.6 104.7 C34.7 104.5 32.9 104.2 31 104 C28.9 103.8 26.8 103.7 24.6 103.6 C22.4 103.6 20.2 103.5 18 103.5 C15.8 103.5 13.6 103.6 11.3 103.6 C8.3 103.8 5.2 104 2.2 104.3 Z M10 178 C8.8 178.2 7.7 178.4 6.5 178.7 C5.4 179 4.3 179.3 3.2 179.6 C2.1 179.9 1.1 180.3 0 180.7 C-1 181.1 -2 181.5 -3 182 C-4 182.5 -5 183 -6 183.6 C-7.4 184.4 -7.4 184.4 -8.9 185.3 C-9.8 185.9 -10.7 186.5 -11.6 187.2 C-12.4 187.8 -13.2 188.4 -14 189 C-14.7 189.5 -15.3 190.1 -16 190.7 C-16.6 191.2 -17.2 191.7 -17.8 192.3 C-18.4 192.9 -18.9 193.5 -19.4 194.1 C-20 194.7 -20.5 195.3 -21 196 C-21.5 196.8 -22.1 197.5 -22.6 198.3 C-23.1 199.1 -23.7 200 -24.2 200.8 C-24.7 201.7 -25.2 202.5 -25.6 203.4 C-26.1 204.2 -26.5 205.1 -27 206 C-27.4 206.9 -27.8 207.8 -28.2 208.7 C-28.9 210.3 -29.6 212 -30.2 213.7 C-30.5 214.4 -30.7 215.2 -31 216 C-31.3 217.2 -31.3 217.2 -31.6 218.4 C-31.7 219.2 -31.9 220.1 -32 221 C-32.1 222.1 -32.2 223.2 -32.2 224.3 C-32.3 226.2 -32.3 228 -32.3 229.9 C-32.3 231.3 -32.2 232.6 -32.2 234 C-32.1 234.7 -32.1 235.3 -32 236 C-31.8 237.2 -31.6 238.4 -31.4 239.7 C-31 240.9 -30.7 242 -30.4 243.2 C-30.1 244.4 -29.7 245.5 -29.3 246.7 C-28.7 248.3 -28.7 248.3 -28 250 C-27.5 251 -27 252 -26.5 253 C-25.9 254 -25.4 254.9 -24.8 255.9 C-24.2 256.7 -23.6 257.6 -23 258.5 C-22.3 259.3 -21.7 260.2 -21 261 C-20.2 261.8 -19.5 262.6 -18.7 263.4 C-17.9 264.1 -17.1 264.8 -16.3 265.5 C-14.9 266.7 -13.5 267.9 -12 269 C-10.9 269.9 -10.9 269.9 -9.9 270.7 C-9.2 271.1 -8.6 271.6 -8 272 C-7.3 272 -6.7 272 -6 272 C-5.6 272.8 -5.3 273.6 -4.9 274.4 C-4.6 275.6 -4.3 276.8 -4 278 C-4 278.6 -4 279.2 -4 279.9 C-4.2 281.5 -4.3 283.1 -4.5 284.7 C-4.8 286.5 -5 288.2 -5.3 290 C-6.4 295.9 -7.6 301.7 -8.8 307.6 C-9.2 309.5 -9.6 311.4 -10 313.4 C-11 318.4 -12 323.5 -13.1 328.6 C-14.1 333.7 -15.1 338.7 -16.1 343.8 C-16.3 344.8 -16.5 345.7 -16.7 346.8 C-18.6 356.3 -20.6 365.9 -22.5 375.4 C-23 377.9 -23.5 380.4 -24 382.9 C-24.7 386.6 -25.5 390.3 -26.2 394 C-26.6 395.9 -27 397.8 -27.3 399.7 C-27.8 401.9 -28.2 404.1 -28.6 406.3 C-28.8 407.9 -29.1 409.5 -29.3 411.2 C-29.3 411.8 -29.4 412.4 -29.4 413 C-29.3 414 -29.1 415 -29 416 C-28.5 416.9 -28 417.7 -27.5 418.6 C-26.7 419.4 -25.8 420.2 -25 421 C-23.2 421.3 -23.2 421.3 -21.3 421.6 C-19.8 421.6 -18.2 421.6 -16.7 421.6 C-15.9 421.6 -15 421.6 -14.2 421.6 C-11.4 421.6 -8.7 421.6 -5.9 421.6 C-4 421.6 -2.1 421.6 -0.2 421.6 C3.8 421.6 7.8 421.6 11.8 421.5 C17 421.5 22.1 421.5 27.2 421.5 C31.2 421.5 35.1 421.5 39.1 421.5 C41 421.5 42.9 421.5 44.8 421.5 C47.4 421.5 50.1 421.4 52.7 421.4 C53.5 421.4 54.3 421.4 55.1 421.4 C55.8 421.4 56.5 421.4 57.3 421.4 C59.1 421.2 59.1 421.2 61 421 C61.8 420.6 62.6 420.2 63.5 419.7 C64 419.2 64.5 418.6 65 418 C65.3 417.4 65.5 416.8 65.8 416.2 C65.9 415.5 65.9 414.8 66 414 C65.9 413 65.8 412 65.6 410.9 C65.3 409.1 65.3 409.1 64.9 407.2 C64.8 406.6 64.7 405.9 64.5 405.2 C64.1 402.9 63.6 400.6 63.2 398.3 C62.9 396.7 62.6 395 62.2 393.4 C59.8 380.9 57.3 368.5 54.7 356 C54.1 352.9 53.5 349.8 52.8 346.7 C52.4 344.6 52 342.5 51.5 340.4 C51.3 339.3 51.1 338.3 50.9 337.2 C49.8 331.9 48.7 326.5 47.6 321.2 C46.5 315.9 45.4 310.6 44.3 305.3 C43.9 303.3 43.5 301.3 43.1 299.3 C42.5 296.6 42 293.8 41.4 291 C41.2 290.2 41.1 289.4 40.9 288.6 C40.7 287.9 40.6 287.1 40.4 286.3 C40.3 285.6 40.2 284.9 40.1 284.1 C40.1 283.1 40.1 283.1 40 282 C40.1 281.3 40.2 280.5 40.3 279.8 C40.4 279.1 40.6 278.3 40.7 277.6 C41.4 275.8 41.4 275.8 42 274 C42.5 273.5 42.9 273 43.4 272.4 C44.1 271.8 44.1 271.8 44.8 271.1 C45.9 270.3 47 269.4 48.2 268.6 C50 267.2 51.7 265.7 53.4 264.3 C54 263.9 54.5 263.5 55 263 C55.7 262.2 56.5 261.5 57.2 260.7 C57.8 260 58.4 259.3 59 258.6 C59.8 257.5 59.8 257.5 60.6 256.4 C61 255.6 61.5 254.8 62 254 C62.5 253 63 252 63.5 250.9 C64.4 248.9 65.2 246.8 66.1 244.7 C66.6 243.2 67.1 241.7 67.6 240.1 C67.7 239.4 67.9 238.7 68 238 C68.1 236.8 68.2 235.6 68.2 234.4 C68.3 232.2 68.3 230 68.3 227.8 C68.3 226.3 68.2 224.8 68.2 223.2 C68.1 222.5 68.1 221.8 68 221 C67.8 219.7 67.6 218.5 67.4 217.2 C67 216 66.7 214.8 66.4 213.6 C66.1 212.5 65.7 211.4 65.3 210.2 C64.9 209.2 64.5 208.1 64 207 C63.2 205.5 63.2 205.5 62.4 203.9 C61.8 203 61.3 202 60.7 201.1 C60.1 200.2 59.5 199.3 58.8 198.4 C57.7 196.9 56.6 195.5 55.4 194 C54.9 193.5 54.4 192.9 53.9 192.3 C53.3 191.8 52.7 191.2 52.1 190.7 C51.4 190.1 50.7 189.6 50 189 C48.5 188 48.5 188 47.1 186.9 C46 186.2 44.9 185.5 43.8 184.8 C42.6 184.1 41.5 183.4 40.3 182.7 C39.2 182.2 38.1 181.6 37 181 C36.1 180.6 35.2 180.2 34.3 179.8 C33.4 179.6 32.6 179.3 31.7 179 C30.8 178.8 29.9 178.6 29 178.4 C27.5 178.2 27.5 178.2 26 178 C24.8 177.9 23.5 177.8 22.2 177.7 C20.9 177.6 19.5 177.6 18.1 177.6 C16.7 177.6 15.4 177.6 14 177.7 C13.3 177.7 12.7 177.7 12 177.8 C11.3 177.9 10.7 177.9 10 178 Z M64 295 C64.5 298.6 65 302.2 65.6 305.8 C66.9 313.1 68.4 320.5 69.9 327.8 C70.6 331.1 71.2 334.4 71.9 337.7 C73.8 347.1 75.7 356.5 77.6 365.9 C78.7 371.6 79.9 377.4 81 383.2 C81.5 385.4 81.9 387.6 82.4 389.7 C83 392.8 83.6 395.9 84.2 398.9 C84.4 399.8 84.6 400.7 84.8 401.6 C85.1 403.3 85.4 404.9 85.7 406.6 C85.8 407.4 85.9 408.2 86 409 C86 409.8 86.1 410.7 86.1 411.5 C86.1 413.1 86.1 414.6 86.1 416.1 C86.1 416.7 86 417.4 86 418 C85.8 419.4 85.8 419.4 85.6 420.8 C85.3 421.9 85.3 421.9 84.9 423.1 C84.5 424.3 84.5 424.3 84.1 425.6 C83.6 426.8 83.6 426.8 83 428 C82.5 428.7 82.1 429.5 81.6 430.2 C81 430.9 80.5 431.6 79.9 432.3 C79.3 432.9 78.7 433.6 78.1 434.2 C77.4 434.8 76.7 435.4 76 436 C75.2 436.5 74.3 437 73.5 437.6 C72.2 438.2 72.2 438.2 70.9 438.9 C69.7 439.5 69.7 439.5 68.4 440.1 C67.6 440.4 66.8 440.7 66 441 C65.3 441.2 64.6 441.4 63.9 441.5 C62.9 441.7 62 441.8 61 442 C59 442.1 57.1 442.1 55.1 442.2 C54.3 442.2 53.6 442.2 52.8 442.2 C52 442.2 51.2 442.2 50.3 442.2 C47.7 442.2 45 442.2 42.3 442.2 C40.4 442.2 38.6 442.2 36.7 442.2 C32.8 442.2 28.8 442.2 24.9 442.2 C19.9 442.2 14.9 442.3 9.9 442.3 C6 442.3 2.2 442.3 -1.7 442.3 C-3.6 442.3 -5.4 442.3 -7.2 442.3 C-11.4 442.4 -15.6 442.4 -19.8 442.3 C-20.5 442.2 -21.2 442.2 -22 442.2 C-22.6 442.1 -23.3 442.1 -24 442 C-25.2 441.8 -26.3 441.6 -27.5 441.4 C-28.5 441.1 -29.5 440.9 -30.5 440.6 C-31.3 440.3 -32.1 440.1 -33 439.8 C-34 439.4 -34 439.4 -35 439 C-36 438.4 -37.1 437.7 -38.1 437.1 C-39.3 436 -39.3 436 -40.4 434.9 C-41.6 433.9 -41.6 433.9 -42.8 432.8 C-43.5 431.9 -44.3 431 -45 430 C-45.4 429.3 -45.7 428.6 -46.1 427.9 C-46.4 427.1 -46.8 426.3 -47.1 425.5 C-47.5 424.6 -47.8 423.7 -48.1 422.8 C-48.4 421.9 -48.7 421 -49 420 C-49.2 419 -49.5 418 -49.7 417 C-50.5 412.8 -51.3 408.5 -52 404.3 C-52.4 402.2 -52.8 400.1 -53.2 398 C-53.5 397 -53.7 396 -54 395 C-54.4 394 -54.7 393.1 -55.1 392.1 C-55.9 390.4 -56.8 388.8 -57.6 387.1 C-58.1 386.4 -58.5 385.7 -59 385 C-60 384 -60 384 -61 383.1 C-62 382.3 -62 382.3 -62.9 381.5 C-63.6 381 -64.3 380.6 -65 380.1 C-65.7 379.7 -66.3 379.4 -67 379 C-67.9 378.5 -68.9 378.1 -69.9 377.6 C-70.9 377.4 -71.9 377.2 -73 377 C-73.8 376.9 -74.5 376.9 -75.3 376.8 C-76.2 376.8 -77 376.7 -77.9 376.7 C-78.7 376.7 -79.6 376.7 -80.5 376.8 C-81.7 376.9 -81.7 376.9 -83 377 C-83.7 377.1 -84.4 377.3 -85.2 377.4 C-86.2 377.7 -86.2 377.7 -87.2 378.1 C-88.1 378.5 -88.1 378.5 -89.1 378.9 C-89.7 379.3 -90.4 379.6 -91 380 C-91.6 380.5 -92.3 381 -92.9 381.5 C-93.9 382.4 -93.9 382.4 -94.8 383.3 C-95.6 384.1 -95.6 384.1 -96.5 385 C-97 385.7 -97.5 386.3 -98 387 C-98.6 387.9 -99.1 388.8 -99.7 389.7 C-100.3 391.4 -100.3 391.4 -101 393 C-101.1 394.2 -101.3 395.5 -101.4 396.7 C-101.5 398.1 -101.5 399.5 -101.4 400.9 C-101.4 401.6 -101.4 402.4 -101.4 403.1 C-101.4 404.7 -101.3 406.2 -101.2 407.7 C-101.1 408.5 -101.1 409.2 -101 410 C-100.9 410.7 -100.8 411.4 -100.7 412.1 C-100.5 413.4 -100.2 414.7 -99.9 416 C-99.6 417.4 -99.3 418.7 -98.9 420 C-98.5 421.3 -98.1 422.6 -97.7 424 C-97 426.1 -96.2 428.2 -95.5 430.3 C-94.9 431.8 -94.4 433.2 -93.8 434.7 C-93.2 436.1 -92.6 437.5 -92 439 C-91.3 440.3 -90.7 441.7 -90 443 C-89.7 443.6 -89.3 444.2 -88.9 444.8 C-88.2 446 -87.5 447.2 -86.8 448.3 C-85.6 449.9 -84.5 451.5 -83.3 453.1 C-81.8 455 -80.3 456.9 -78.7 458.7 C-78 459.6 -77.3 460.4 -76.5 461.3 C-74.3 463.6 -72.1 465.9 -69.9 468.1 C-69.2 468.8 -68.5 469.4 -67.8 470.1 C-67 470.8 -66.3 471.4 -65.5 472.1 C-64.3 473 -64.3 473 -63 474 C-62 474.7 -61.1 475.3 -60.1 476 C-59.1 476.7 -58 477.4 -56.9 478.1 C-55.2 479.1 -53.5 480.1 -51.8 481 C-50 482 -48.1 483 -46.3 483.9 C-44.3 484.8 -42.4 485.7 -40.4 486.6 C-39 487.1 -37.6 487.7 -36.2 488.2 C-34.7 488.8 -33.2 489.3 -31.6 489.8 C-29.2 490.5 -26.7 491.2 -24.2 491.8 C-21.2 492.6 -18.1 493.3 -15 494 C-12.8 494.4 -10.7 494.9 -8.5 495.2 C-6.7 495.5 -4.8 495.8 -3 496 C-2.2 496.1 -1.4 496.2 -0.6 496.3 C0.2 496.4 1 496.5 1.9 496.6 C3.9 496.8 6 496.9 8 497 C12.5 497.1 17 497.2 21.5 497.2 C24.4 497.1 27.2 497.1 30 497 C31.5 496.9 33 496.8 34.5 496.7 C35.8 496.6 37.2 496.5 38.6 496.3 C39.9 496.1 41.3 495.9 42.7 495.8 C45.8 495.2 49 494.6 52.1 494 C54.8 493.4 57.5 492.8 60.2 492.2 C61.9 491.7 63.7 491.2 65.5 490.8 C67.1 490.3 68.7 489.8 70.4 489.2 C71.9 488.7 73.4 488.1 74.9 487.6 C76.3 487 77.7 486.4 79.1 485.8 C80.4 485.2 81.8 484.6 83.1 483.9 C84.9 483 86.7 482.1 88.5 481.2 C89.6 480.5 90.6 479.9 91.8 479.2 C92.8 478.6 93.8 477.9 94.9 477.2 C96.5 476.1 98.1 474.9 99.7 473.7 C101.4 472.4 103.1 471.1 104.8 469.7 C105.8 468.7 106.9 467.8 108 466.8 C109 465.9 110 465 111 464 C111.8 463.1 112.7 462.2 113.5 461.3 C114.3 460.5 115 459.6 115.8 458.7 C116.5 457.8 117.2 456.9 117.9 455.9 C119 454.4 120.1 452.9 121.1 451.3 C122.2 449.6 123.2 447.8 124.2 446.1 C125.5 443.7 126.8 441.4 128 439 C128.5 438 129 437.1 129.5 436.1 C129.9 435.2 130.3 434.3 130.8 433.3 C131.1 432.3 131.5 431.4 131.9 430.3 C132.5 428.6 133.1 426.8 133.6 425 C134 423.6 134.4 422.1 134.8 420.7 C135.1 419.1 135.5 417.5 135.8 415.9 C136.1 414.2 136.4 412.5 136.7 410.8 C136.8 409.9 136.9 408.9 137 408 C137.2 406 137.3 403.9 137.4 401.9 C137.4 399.8 137.5 397.7 137.5 395.6 C137.5 393.4 137.4 391.3 137.4 389.2 C137.3 387.1 137.2 385.1 137 383 C136.8 381.1 136.5 379.3 136.3 377.5 C136 375.7 135.7 374 135.3 372.3 C135 370.7 134.6 369.1 134.2 367.4 C133.5 364.7 132.7 361.9 131.9 359.1 C131.3 357.4 131.3 357.4 130.8 355.6 C130.3 354.5 129.9 353.4 129.5 352.3 C129 351.2 128.5 350.1 128 349 C127.4 347.8 126.8 346.6 126.2 345.4 C125.5 344.2 124.9 343 124.2 341.8 C123.5 340.6 122.8 339.4 122.1 338.2 C121.1 336.6 121.1 336.6 120 335 C119.4 334.1 118.7 333.2 118.1 332.2 C117.4 331.4 116.8 330.6 116.1 329.8 C114 327.3 111.9 324.9 109.7 322.5 C108.9 321.6 108.1 320.8 107.3 319.9 C106.5 319.1 105.6 318.3 104.7 317.4 C103.8 316.6 102.9 315.8 102 315 C101 314.2 100 313.5 99 312.7 C97.5 311.5 97.5 311.5 95.9 310.4 C94.2 309.3 92.5 308.1 90.8 307.1 C89.6 306.3 88.3 305.6 87 304.9 C84.9 303.8 82.8 302.7 80.8 301.6 C78.8 300.7 76.8 299.7 74.8 298.8 C73.9 298.4 73.9 298.4 73 298 C72 297.6 71 297.2 70 296.8 C69.2 296.6 68.3 296.3 67.5 296 C66.3 295.7 65.2 295.3 64 295 Z " transform="translate(494,185)" fill="currentColor" />
</svg>
